<mxfile host="app.diagrams.net" agent="Mozilla/5.0 (Macintosh; Intel Mac OS X 10_15_7) AppleWebKit/605.1.15 (KHTML, like Gecko) Version/16.6 Safari/605.1.15" version="26.0.4">
  <diagram name="Page-1" id="WZwVvHjPCqPEUTxyxGWn">
    <mxGraphModel dx="1405" dy="908" grid="1" gridSize="10" guides="1" tooltips="1" connect="1" arrows="1" fold="1" page="1" pageScale="1" pageWidth="850" pageHeight="1100" math="0" shadow="0">
      <root>
        <mxCell id="0" />
        <mxCell id="1" parent="0" />
        <mxCell id="ZbxtkYr-YWAduZjAJKHO-77" value="" style="verticalLabelPosition=bottom;verticalAlign=top;html=1;shape=mxgraph.basic.rect;fillColor2=none;strokeWidth=2;size=20;indent=5;fillColor=none;" parent="1" vertex="1">
          <mxGeometry x="290" y="370" width="950" height="300" as="geometry" />
        </mxCell>
        <mxCell id="ZbxtkYr-YWAduZjAJKHO-82" style="edgeStyle=orthogonalEdgeStyle;rounded=0;orthogonalLoop=1;jettySize=auto;html=1;" parent="1" source="ZbxtkYr-YWAduZjAJKHO-3" target="ZbxtkYr-YWAduZjAJKHO-11" edge="1">
          <mxGeometry relative="1" as="geometry" />
        </mxCell>
        <mxCell id="_bRPd7Ua2Emygc_4kCLo-8" value="" style="rounded=1;whiteSpace=wrap;html=1;" parent="1" vertex="1">
          <mxGeometry x="390" y="400" width="170" height="60" as="geometry" />
        </mxCell>
        <mxCell id="ZbxtkYr-YWAduZjAJKHO-3" value="user" style="shape=actor;whiteSpace=wrap;html=1;align=left;labelPosition=right;verticalLabelPosition=middle;verticalAlign=middle;fontSize=13;" parent="1" vertex="1">
          <mxGeometry x="690" y="30" width="40" height="60" as="geometry" />
        </mxCell>
        <mxCell id="ZbxtkYr-YWAduZjAJKHO-13" value="" style="edgeStyle=orthogonalEdgeStyle;rounded=0;orthogonalLoop=1;jettySize=auto;html=1;" parent="1" source="ZbxtkYr-YWAduZjAJKHO-11" target="ZbxtkYr-YWAduZjAJKHO-12" edge="1">
          <mxGeometry relative="1" as="geometry">
            <Array as="points">
              <mxPoint x="680" y="310" />
              <mxPoint x="680" y="310" />
            </Array>
          </mxGeometry>
        </mxCell>
        <mxCell id="_bRPd7Ua2Emygc_4kCLo-17" value="HTTPS&lt;div&gt;&lt;br&gt;&lt;/div&gt;" style="edgeLabel;html=1;align=center;verticalAlign=middle;resizable=0;points=[];" parent="ZbxtkYr-YWAduZjAJKHO-13" vertex="1" connectable="0">
          <mxGeometry x="0.2918" y="-1" relative="1" as="geometry">
            <mxPoint as="offset" />
          </mxGeometry>
        </mxCell>
        <mxCell id="ZbxtkYr-YWAduZjAJKHO-83" style="edgeStyle=orthogonalEdgeStyle;rounded=0;orthogonalLoop=1;jettySize=auto;html=1;entryX=0.5;entryY=1;entryDx=0;entryDy=0;" parent="1" source="ZbxtkYr-YWAduZjAJKHO-11" target="ZbxtkYr-YWAduZjAJKHO-3" edge="1">
          <mxGeometry relative="1" as="geometry" />
        </mxCell>
        <mxCell id="ZbxtkYr-YWAduZjAJKHO-11" value="Client app" style="verticalLabelPosition=bottom;verticalAlign=top;html=1;shape=mxgraph.basic.acute_triangle;dx=0.5;" parent="1" vertex="1">
          <mxGeometry x="660" y="160" width="100" height="70" as="geometry" />
        </mxCell>
        <mxCell id="ZbxtkYr-YWAduZjAJKHO-18" value="" style="edgeStyle=orthogonalEdgeStyle;rounded=0;orthogonalLoop=1;jettySize=auto;html=1;" parent="1" source="ZbxtkYr-YWAduZjAJKHO-12" edge="1">
          <mxGeometry relative="1" as="geometry">
            <mxPoint x="560" y="430" as="targetPoint" />
          </mxGeometry>
        </mxCell>
        <mxCell id="ZbxtkYr-YWAduZjAJKHO-12" value="&lt;font style=&quot;font-size: 16px;&quot;&gt;API Gateway (Kong)&lt;/font&gt;" style="rounded=1;whiteSpace=wrap;html=1;verticalAlign=top;" parent="1" vertex="1">
          <mxGeometry x="650" y="400" width="120" height="60" as="geometry" />
        </mxCell>
        <mxCell id="ZbxtkYr-YWAduZjAJKHO-59" style="edgeStyle=orthogonalEdgeStyle;rounded=0;orthogonalLoop=1;jettySize=auto;html=1;entryX=0;entryY=0.5;entryDx=0;entryDy=0;" parent="1" edge="1">
          <mxGeometry relative="1" as="geometry">
            <mxPoint x="560" y="430" as="sourcePoint" />
            <mxPoint x="650" y="430" as="targetPoint" />
          </mxGeometry>
        </mxCell>
        <mxCell id="_bRPd7Ua2Emygc_4kCLo-51" value="HTTP" style="edgeLabel;html=1;align=center;verticalAlign=middle;resizable=0;points=[];" parent="ZbxtkYr-YWAduZjAJKHO-59" vertex="1" connectable="0">
          <mxGeometry x="-0.281" relative="1" as="geometry">
            <mxPoint x="-1" as="offset" />
          </mxGeometry>
        </mxCell>
        <mxCell id="7v7jsVOClabLG5YhFFzS-9" style="edgeStyle=orthogonalEdgeStyle;rounded=0;orthogonalLoop=1;jettySize=auto;html=1;" parent="1" source="ZbxtkYr-YWAduZjAJKHO-21" target="7v7jsVOClabLG5YhFFzS-5" edge="1">
          <mxGeometry relative="1" as="geometry" />
        </mxCell>
        <mxCell id="ZbxtkYr-YWAduZjAJKHO-21" value="Booking Service" style="rounded=1;whiteSpace=wrap;html=1;absoluteArcSize=1;arcSize=14;strokeWidth=2;fillColor=none;" parent="1" vertex="1">
          <mxGeometry x="425" y="540" width="153" height="108" as="geometry" />
        </mxCell>
        <mxCell id="d06tp9DBLHwbal2BPvGb-7" style="edgeStyle=orthogonalEdgeStyle;rounded=0;orthogonalLoop=1;jettySize=auto;html=1;" parent="1" source="ZbxtkYr-YWAduZjAJKHO-22" target="7v7jsVOClabLG5YhFFzS-12" edge="1">
          <mxGeometry relative="1" as="geometry">
            <Array as="points">
              <mxPoint x="660" y="668" />
              <mxPoint x="640" y="668" />
            </Array>
          </mxGeometry>
        </mxCell>
        <mxCell id="ZbxtkYr-YWAduZjAJKHO-22" value="Restaurant Service" style="rounded=1;whiteSpace=wrap;html=1;absoluteArcSize=1;arcSize=14;strokeWidth=2;fillColor=none;" parent="1" vertex="1">
          <mxGeometry x="637" y="540" width="153" height="108" as="geometry" />
        </mxCell>
        <mxCell id="ZbxtkYr-YWAduZjAJKHO-23" value="Ai Service" style="rounded=1;whiteSpace=wrap;html=1;absoluteArcSize=1;arcSize=14;strokeWidth=2;fillColor=none;" parent="1" vertex="1">
          <mxGeometry x="840" y="540" width="153" height="108" as="geometry" />
        </mxCell>
        <mxCell id="ZbxtkYr-YWAduZjAJKHO-27" value="Elastic search" style="strokeWidth=2;html=1;shape=mxgraph.flowchart.database;whiteSpace=wrap;fillColor=#9EE8D7;labelPosition=center;verticalLabelPosition=bottom;align=left;verticalAlign=top;fontSize=11;labelBackgroundColor=default;strokeColor=#54B3A0;" parent="1" vertex="1">
          <mxGeometry x="790" y="740" width="50" height="60" as="geometry" />
        </mxCell>
        <mxCell id="ZbxtkYr-YWAduZjAJKHO-28" value="OpenAI-GPT4" style="ellipse;shape=cloud;whiteSpace=wrap;html=1;" parent="1" vertex="1">
          <mxGeometry x="790" y="240" width="120" height="80" as="geometry" />
        </mxCell>
        <mxCell id="ZbxtkYr-YWAduZjAJKHO-29" value="OpenAI&amp;nbsp;&lt;div&gt;Embedding&amp;nbsp;&lt;/div&gt;&lt;div&gt;model&lt;/div&gt;" style="ellipse;shape=cloud;whiteSpace=wrap;html=1;" parent="1" vertex="1">
          <mxGeometry x="900" y="250" width="170" height="70" as="geometry" />
        </mxCell>
        <mxCell id="ZbxtkYr-YWAduZjAJKHO-33" style="edgeStyle=orthogonalEdgeStyle;rounded=0;orthogonalLoop=1;jettySize=auto;html=1;entryX=0.069;entryY=-0.004;entryDx=0;entryDy=0;entryPerimeter=0;" parent="1" edge="1">
          <mxGeometry relative="1" as="geometry">
            <mxPoint x="860.0000000000005" y="319.9999999999998" as="sourcePoint" />
            <mxPoint x="860.5569999999998" y="539.5680000000002" as="targetPoint" />
          </mxGeometry>
        </mxCell>
        <mxCell id="ZbxtkYr-YWAduZjAJKHO-34" style="edgeStyle=orthogonalEdgeStyle;rounded=0;orthogonalLoop=1;jettySize=auto;html=1;entryX=0.65;entryY=0.95;entryDx=0;entryDy=0;entryPerimeter=0;exitX=0.183;exitY=0.012;exitDx=0;exitDy=0;exitPerimeter=0;" parent="1" edge="1">
          <mxGeometry relative="1" as="geometry">
            <mxPoint x="859.9989999999993" y="541.296" as="sourcePoint" />
            <mxPoint x="860" y="316" as="targetPoint" />
          </mxGeometry>
        </mxCell>
        <mxCell id="_bRPd7Ua2Emygc_4kCLo-50" value="HTTPS" style="edgeLabel;html=1;align=center;verticalAlign=middle;resizable=0;points=[];" parent="ZbxtkYr-YWAduZjAJKHO-34" vertex="1" connectable="0">
          <mxGeometry x="0.0089" y="-2" relative="1" as="geometry">
            <mxPoint as="offset" />
          </mxGeometry>
        </mxCell>
        <mxCell id="ZbxtkYr-YWAduZjAJKHO-38" style="edgeStyle=orthogonalEdgeStyle;rounded=0;orthogonalLoop=1;jettySize=auto;html=1;entryX=0.946;entryY=0.006;entryDx=0;entryDy=0;entryPerimeter=0;" parent="1" edge="1">
          <mxGeometry relative="1" as="geometry">
            <mxPoint x="970.2899999999995" y="320" as="sourcePoint" />
            <mxPoint x="970.0279999999998" y="540.6480000000001" as="targetPoint" />
          </mxGeometry>
        </mxCell>
        <mxCell id="ZbxtkYr-YWAduZjAJKHO-39" style="edgeStyle=orthogonalEdgeStyle;rounded=0;orthogonalLoop=1;jettySize=auto;html=1;entryX=0.373;entryY=0.91;entryDx=0;entryDy=0;entryPerimeter=0;exitX=0.807;exitY=-0.012;exitDx=0;exitDy=0;exitPerimeter=0;" parent="1" edge="1">
          <mxGeometry relative="1" as="geometry">
            <mxPoint x="970.061" y="538.7040000000002" as="sourcePoint" />
            <mxPoint x="969.9999999999994" y="313.70000000000005" as="targetPoint" />
          </mxGeometry>
        </mxCell>
        <mxCell id="_bRPd7Ua2Emygc_4kCLo-49" value="HTTPS" style="edgeLabel;html=1;align=center;verticalAlign=middle;resizable=0;points=[];" parent="ZbxtkYr-YWAduZjAJKHO-39" vertex="1" connectable="0">
          <mxGeometry x="-0.2014" y="-3" relative="1" as="geometry">
            <mxPoint as="offset" />
          </mxGeometry>
        </mxCell>
        <mxCell id="ZbxtkYr-YWAduZjAJKHO-41" value="" style="group" parent="1" vertex="1" connectable="0">
          <mxGeometry x="410" y="850" width="640" height="140" as="geometry" />
        </mxCell>
        <mxCell id="ZbxtkYr-YWAduZjAJKHO-42" value="Message broker" style="verticalLabelPosition=bottom;verticalAlign=top;html=1;shape=mxgraph.basic.rect;fillColor2=none;strokeWidth=1;size=20;indent=5;fillColor=none;" parent="ZbxtkYr-YWAduZjAJKHO-41" vertex="1">
          <mxGeometry width="640" height="140" as="geometry" />
        </mxCell>
        <mxCell id="ZbxtkYr-YWAduZjAJKHO-43" value="Queue 1" style="rounded=1;whiteSpace=wrap;html=1;absoluteArcSize=1;arcSize=14;strokeWidth=2;fillColor=#fff2cc;strokeColor=#d6b656;" parent="ZbxtkYr-YWAduZjAJKHO-41" vertex="1">
          <mxGeometry x="33.68421052631579" y="18.666666666666664" width="572.6315789473684" height="28" as="geometry" />
        </mxCell>
        <mxCell id="ZbxtkYr-YWAduZjAJKHO-44" value="Queue 2" style="rounded=1;whiteSpace=wrap;html=1;absoluteArcSize=1;arcSize=14;strokeWidth=2;fillColor=#e1d5e7;strokeColor=#9673a6;" parent="ZbxtkYr-YWAduZjAJKHO-41" vertex="1">
          <mxGeometry x="33.68421052631579" y="56" width="572.6315789473684" height="28" as="geometry" />
        </mxCell>
        <mxCell id="ZbxtkYr-YWAduZjAJKHO-45" value="Queue 3" style="rounded=1;whiteSpace=wrap;html=1;absoluteArcSize=1;arcSize=14;strokeWidth=2;fillColor=#ffe6cc;strokeColor=#d79b00;" parent="ZbxtkYr-YWAduZjAJKHO-41" vertex="1">
          <mxGeometry x="33.68421052631579" y="93.33333333333333" width="572.6315789473684" height="28" as="geometry" />
        </mxCell>
        <mxCell id="ZbxtkYr-YWAduZjAJKHO-48" style="edgeStyle=orthogonalEdgeStyle;rounded=0;orthogonalLoop=1;jettySize=auto;html=1;entryX=0.108;entryY=0.022;entryDx=0;entryDy=0;entryPerimeter=0;" parent="1" source="ZbxtkYr-YWAduZjAJKHO-21" target="ZbxtkYr-YWAduZjAJKHO-42" edge="1">
          <mxGeometry relative="1" as="geometry">
            <Array as="points">
              <mxPoint x="480" y="714" />
            </Array>
          </mxGeometry>
        </mxCell>
        <mxCell id="ZbxtkYr-YWAduZjAJKHO-50" style="edgeStyle=orthogonalEdgeStyle;rounded=0;orthogonalLoop=1;jettySize=auto;html=1;entryX=0.629;entryY=1.033;entryDx=0;entryDy=0;entryPerimeter=0;exitX=0.174;exitY=0.018;exitDx=0;exitDy=0;exitPerimeter=0;" parent="1" edge="1">
          <mxGeometry relative="1" as="geometry">
            <mxPoint x="480.1800000000001" y="782.5200000000002" as="sourcePoint" />
            <mxPoint x="480.0570000000001" y="651.5640000000001" as="targetPoint" />
          </mxGeometry>
        </mxCell>
        <mxCell id="_bRPd7Ua2Emygc_4kCLo-32" value="publish/consume" style="edgeLabel;html=1;align=center;verticalAlign=middle;resizable=0;points=[];" parent="ZbxtkYr-YWAduZjAJKHO-50" vertex="1" connectable="0">
          <mxGeometry x="0.0113" y="1" relative="1" as="geometry">
            <mxPoint as="offset" />
          </mxGeometry>
        </mxCell>
        <mxCell id="ZbxtkYr-YWAduZjAJKHO-55" style="edgeStyle=orthogonalEdgeStyle;rounded=0;orthogonalLoop=1;jettySize=auto;html=1;entryX=0.629;entryY=1.033;entryDx=0;entryDy=0;entryPerimeter=0;exitX=0.174;exitY=0.018;exitDx=0;exitDy=0;exitPerimeter=0;" parent="1" edge="1">
          <mxGeometry relative="1" as="geometry">
            <mxPoint x="730" y="775.5" as="sourcePoint" />
            <mxPoint x="730" y="644.5" as="targetPoint" />
          </mxGeometry>
        </mxCell>
        <mxCell id="ZbxtkYr-YWAduZjAJKHO-56" style="edgeStyle=orthogonalEdgeStyle;rounded=0;orthogonalLoop=1;jettySize=auto;html=1;entryX=0.629;entryY=1.033;entryDx=0;entryDy=0;entryPerimeter=0;exitX=0.174;exitY=0.018;exitDx=0;exitDy=0;exitPerimeter=0;" parent="1" edge="1">
          <mxGeometry relative="1" as="geometry">
            <mxPoint x="910" y="775.5" as="sourcePoint" />
            <mxPoint x="910" y="644.5" as="targetPoint" />
          </mxGeometry>
        </mxCell>
        <mxCell id="ZbxtkYr-YWAduZjAJKHO-57" style="edgeStyle=orthogonalEdgeStyle;rounded=0;orthogonalLoop=1;jettySize=auto;html=1;entryX=0.781;entryY=0;entryDx=0;entryDy=0;entryPerimeter=0;" parent="1" edge="1" target="ZbxtkYr-YWAduZjAJKHO-42">
          <mxGeometry relative="1" as="geometry">
            <mxPoint x="910" y="648" as="sourcePoint" />
            <mxPoint x="910" y="783" as="targetPoint" />
            <Array as="points">
              <mxPoint x="910" y="714" />
              <mxPoint x="911" y="850" />
            </Array>
          </mxGeometry>
        </mxCell>
        <mxCell id="_bRPd7Ua2Emygc_4kCLo-35" value="publish/consume" style="edgeLabel;html=1;align=center;verticalAlign=middle;resizable=0;points=[];" parent="ZbxtkYr-YWAduZjAJKHO-57" vertex="1" connectable="0">
          <mxGeometry x="0.222" relative="1" as="geometry">
            <mxPoint as="offset" />
          </mxGeometry>
        </mxCell>
        <mxCell id="ZbxtkYr-YWAduZjAJKHO-58" style="edgeStyle=orthogonalEdgeStyle;rounded=0;orthogonalLoop=1;jettySize=auto;html=1;entryX=0.495;entryY=-0.011;entryDx=0;entryDy=0;entryPerimeter=0;" parent="1" edge="1" target="ZbxtkYr-YWAduZjAJKHO-42">
          <mxGeometry relative="1" as="geometry">
            <mxPoint x="729.5200000000001" y="645" as="sourcePoint" />
            <mxPoint x="729.5200000000001" y="780" as="targetPoint" />
            <Array as="points">
              <mxPoint x="729" y="711" />
              <mxPoint x="731" y="848" />
            </Array>
          </mxGeometry>
        </mxCell>
        <mxCell id="_bRPd7Ua2Emygc_4kCLo-34" value="publish/consume" style="edgeLabel;html=1;align=center;verticalAlign=middle;resizable=0;points=[];" parent="ZbxtkYr-YWAduZjAJKHO-58" vertex="1" connectable="0">
          <mxGeometry x="0.4761" y="4" relative="1" as="geometry">
            <mxPoint as="offset" />
          </mxGeometry>
        </mxCell>
        <mxCell id="7v7jsVOClabLG5YhFFzS-7" style="edgeStyle=orthogonalEdgeStyle;rounded=0;orthogonalLoop=1;jettySize=auto;html=1;" parent="1" source="ZbxtkYr-YWAduZjAJKHO-60" target="7v7jsVOClabLG5YhFFzS-5" edge="1">
          <mxGeometry relative="1" as="geometry" />
        </mxCell>
        <mxCell id="ZbxtkYr-YWAduZjAJKHO-60" value="Read DB" style="strokeWidth=2;html=1;shape=mxgraph.flowchart.database;whiteSpace=wrap;fillColor=#6d8764;strokeColor=#3A5431;fontColor=#ffffff;" parent="1" vertex="1">
          <mxGeometry x="90" y="670" width="60" height="60" as="geometry" />
        </mxCell>
        <mxCell id="ZbxtkYr-YWAduZjAJKHO-66" value="" style="endArrow=classic;startArrow=classic;html=1;rounded=0;exitX=0.606;exitY=-0.008;exitDx=0;exitDy=0;exitPerimeter=0;entryX=0;entryY=1;entryDx=0;entryDy=0;" parent="1" target="ZbxtkYr-YWAduZjAJKHO-12" edge="1">
          <mxGeometry width="50" height="50" relative="1" as="geometry">
            <mxPoint x="566.7179999999998" y="539.996" as="sourcePoint" />
            <mxPoint x="637" y="460.86" as="targetPoint" />
          </mxGeometry>
        </mxCell>
        <mxCell id="ZbxtkYr-YWAduZjAJKHO-72" value="HTTP" style="edgeLabel;html=1;align=center;verticalAlign=middle;resizable=0;points=[];" parent="ZbxtkYr-YWAduZjAJKHO-66" vertex="1" connectable="0">
          <mxGeometry x="0.0434" y="3" relative="1" as="geometry">
            <mxPoint as="offset" />
          </mxGeometry>
        </mxCell>
        <mxCell id="ZbxtkYr-YWAduZjAJKHO-67" value="" style="endArrow=classic;startArrow=classic;html=1;rounded=0;entryX=0.5;entryY=1;entryDx=0;entryDy=0;" parent="1" source="ZbxtkYr-YWAduZjAJKHO-22" target="ZbxtkYr-YWAduZjAJKHO-12" edge="1">
          <mxGeometry width="50" height="50" relative="1" as="geometry">
            <mxPoint x="603" y="540" as="sourcePoint" />
            <mxPoint x="720" y="470" as="targetPoint" />
          </mxGeometry>
        </mxCell>
        <mxCell id="ZbxtkYr-YWAduZjAJKHO-68" value="&#xa;&lt;span style=&quot;color: rgb(0, 0, 0); font-family: Helvetica; font-size: 11px; font-style: normal; font-variant-ligatures: normal; font-variant-caps: normal; font-weight: 400; letter-spacing: normal; orphans: 2; text-align: center; text-indent: 0px; text-transform: none; widows: 2; word-spacing: 0px; -webkit-text-stroke-width: 0px; white-space: nowrap; background-color: rgb(255, 255, 255); text-decoration-thickness: initial; text-decoration-style: initial; text-decoration-color: initial; display: inline !important; float: none;&quot;&gt;HTTP&lt;/span&gt;&#xa;&#xa;" style="endArrow=classic;startArrow=classic;html=1;rounded=0;entryX=0;entryY=0;entryDx=0;entryDy=0;exitX=1;exitY=1;exitDx=0;exitDy=0;" parent="1" source="ZbxtkYr-YWAduZjAJKHO-12" target="ZbxtkYr-YWAduZjAJKHO-23" edge="1">
          <mxGeometry width="50" height="50" relative="1" as="geometry">
            <mxPoint x="730" y="490" as="sourcePoint" />
            <mxPoint x="780" y="440" as="targetPoint" />
          </mxGeometry>
        </mxCell>
        <mxCell id="ZbxtkYr-YWAduZjAJKHO-73" value="HTTP" style="edgeLabel;html=1;align=center;verticalAlign=middle;resizable=0;points=[];" parent="1" vertex="1" connectable="0">
          <mxGeometry x="720.0012765216555" y="499.9982745913942" as="geometry">
            <mxPoint x="-9" as="offset" />
          </mxGeometry>
        </mxCell>
        <mxCell id="ZbxtkYr-YWAduZjAJKHO-78" value="" style="edgeStyle=orthogonalEdgeStyle;rounded=0;orthogonalLoop=1;jettySize=auto;html=1;exitX=0.75;exitY=0;exitDx=0;exitDy=0;" parent="1" source="ZbxtkYr-YWAduZjAJKHO-12" target="ZbxtkYr-YWAduZjAJKHO-11" edge="1">
          <mxGeometry relative="1" as="geometry">
            <Array as="points">
              <mxPoint x="740" y="270" />
              <mxPoint x="740" y="270" />
            </Array>
          </mxGeometry>
        </mxCell>
        <mxCell id="ZbxtkYr-YWAduZjAJKHO-79" value="HTTPS&lt;div&gt;&lt;br&gt;&lt;/div&gt;" style="edgeLabel;html=1;align=center;verticalAlign=middle;resizable=0;points=[];" parent="ZbxtkYr-YWAduZjAJKHO-78" vertex="1" connectable="0">
          <mxGeometry x="-0.3725" relative="1" as="geometry">
            <mxPoint as="offset" />
          </mxGeometry>
        </mxCell>
        <mxCell id="ZbxtkYr-YWAduZjAJKHO-80" value="Kubernetes" style="text;html=1;align=center;verticalAlign=middle;whiteSpace=wrap;rounded=0;fontSize=19;" parent="1" vertex="1">
          <mxGeometry x="320" y="370" width="60" height="30" as="geometry" />
        </mxCell>
        <mxCell id="7v7jsVOClabLG5YhFFzS-2" style="edgeStyle=orthogonalEdgeStyle;rounded=0;orthogonalLoop=1;jettySize=auto;html=1;entryX=0.78;entryY=0.033;entryDx=0;entryDy=0;entryPerimeter=0;exitX=0.15;exitY=1;exitDx=0;exitDy=0;exitPerimeter=0;" parent="1" source="ZbxtkYr-YWAduZjAJKHO-23" target="ZbxtkYr-YWAduZjAJKHO-27" edge="1">
          <mxGeometry relative="1" as="geometry" />
        </mxCell>
        <mxCell id="7v7jsVOClabLG5YhFFzS-3" style="edgeStyle=orthogonalEdgeStyle;rounded=0;orthogonalLoop=1;jettySize=auto;html=1;entryX=0.18;entryY=0.05;entryDx=0;entryDy=0;entryPerimeter=0;exitX=0.902;exitY=1.019;exitDx=0;exitDy=0;exitPerimeter=0;" parent="1" source="ZbxtkYr-YWAduZjAJKHO-22" target="ZbxtkYr-YWAduZjAJKHO-27" edge="1">
          <mxGeometry relative="1" as="geometry" />
        </mxCell>
        <mxCell id="7v7jsVOClabLG5YhFFzS-4" style="edgeStyle=orthogonalEdgeStyle;rounded=0;orthogonalLoop=1;jettySize=auto;html=1;entryX=0.948;entryY=1.009;entryDx=0;entryDy=0;entryPerimeter=0;exitX=0.171;exitY=-0.016;exitDx=0;exitDy=0;exitPerimeter=0;" parent="1" source="ZbxtkYr-YWAduZjAJKHO-27" target="ZbxtkYr-YWAduZjAJKHO-22" edge="1">
          <mxGeometry relative="1" as="geometry">
            <Array as="points">
              <mxPoint x="799" y="694" />
              <mxPoint x="770" y="694" />
              <mxPoint x="770" y="649" />
            </Array>
          </mxGeometry>
        </mxCell>
        <mxCell id="7v7jsVOClabLG5YhFFzS-5" value="Write DB" style="strokeWidth=2;html=1;shape=mxgraph.flowchart.database;whiteSpace=wrap;fillColor=#6d8764;strokeColor=#3A5431;fontColor=#ffffff;" parent="1" vertex="1">
          <mxGeometry x="90" y="564" width="60" height="60" as="geometry" />
        </mxCell>
        <mxCell id="7v7jsVOClabLG5YhFFzS-8" style="edgeStyle=orthogonalEdgeStyle;rounded=0;orthogonalLoop=1;jettySize=auto;html=1;entryX=0.5;entryY=0;entryDx=0;entryDy=0;entryPerimeter=0;" parent="1" source="7v7jsVOClabLG5YhFFzS-5" target="ZbxtkYr-YWAduZjAJKHO-60" edge="1">
          <mxGeometry relative="1" as="geometry" />
        </mxCell>
        <mxCell id="_bRPd7Ua2Emygc_4kCLo-54" value="sync" style="edgeLabel;html=1;align=center;verticalAlign=middle;resizable=0;points=[];" parent="7v7jsVOClabLG5YhFFzS-8" vertex="1" connectable="0">
          <mxGeometry x="0.4118" y="2" relative="1" as="geometry">
            <mxPoint as="offset" />
          </mxGeometry>
        </mxCell>
        <mxCell id="7v7jsVOClabLG5YhFFzS-12" value="Write DB" style="strokeWidth=2;html=1;shape=mxgraph.flowchart.database;whiteSpace=wrap;fillColor=#6d8764;strokeColor=#3A5431;fontColor=#ffffff;" parent="1" vertex="1">
          <mxGeometry x="610" y="685" width="60" height="50" as="geometry" />
        </mxCell>
        <mxCell id="7v7jsVOClabLG5YhFFzS-20" style="edgeStyle=orthogonalEdgeStyle;rounded=0;orthogonalLoop=1;jettySize=auto;html=1;entryX=0.201;entryY=1.013;entryDx=0;entryDy=0;entryPerimeter=0;exitX=1;exitY=0.5;exitDx=0;exitDy=0;exitPerimeter=0;" parent="1" source="ZbxtkYr-YWAduZjAJKHO-27" target="ZbxtkYr-YWAduZjAJKHO-23" edge="1">
          <mxGeometry relative="1" as="geometry">
            <Array as="points">
              <mxPoint x="871" y="770" />
            </Array>
          </mxGeometry>
        </mxCell>
        <mxCell id="ZbxtkYr-YWAduZjAJKHO-15" value="Auth-Service" style="sketch=0;outlineConnect=0;fontColor=#232F3E;gradientColor=none;strokeColor=#232F3E;fillColor=#ffffff;dashed=0;verticalLabelPosition=middle;verticalAlign=middle;align=right;html=1;fontSize=18;fontStyle=0;aspect=fixed;shape=mxgraph.aws4.resourceIcon;resIcon=mxgraph.aws4.addon;labelPosition=left;" parent="1" vertex="1">
          <mxGeometry x="510" y="410" width="40" height="40" as="geometry" />
        </mxCell>
        <mxCell id="_bRPd7Ua2Emygc_4kCLo-30" style="edgeStyle=orthogonalEdgeStyle;rounded=0;orthogonalLoop=1;jettySize=auto;html=1;" parent="1" source="_bRPd7Ua2Emygc_4kCLo-18" target="_bRPd7Ua2Emygc_4kCLo-31" edge="1">
          <mxGeometry relative="1" as="geometry">
            <mxPoint x="1149.9999999999995" y="310" as="targetPoint" />
            <Array as="points">
              <mxPoint x="1150" y="490" />
              <mxPoint x="1150" y="490" />
            </Array>
          </mxGeometry>
        </mxCell>
        <mxCell id="_bRPd7Ua2Emygc_4kCLo-52" value="HTTPS" style="edgeLabel;html=1;align=center;verticalAlign=middle;resizable=0;points=[];" parent="_bRPd7Ua2Emygc_4kCLo-30" vertex="1" connectable="0">
          <mxGeometry x="-0.1824" y="-5" relative="1" as="geometry">
            <mxPoint y="-1" as="offset" />
          </mxGeometry>
        </mxCell>
        <mxCell id="_bRPd7Ua2Emygc_4kCLo-18" value="Notification-Service" style="rounded=1;whiteSpace=wrap;html=1;absoluteArcSize=1;arcSize=14;strokeWidth=2;fillColor=none;" parent="1" vertex="1">
          <mxGeometry x="1040" y="540" width="153" height="108" as="geometry" />
        </mxCell>
        <mxCell id="mTYZAsVETn8fTmh112mM-7" style="edgeStyle=orthogonalEdgeStyle;rounded=0;orthogonalLoop=1;jettySize=auto;html=1;entryX=0;entryY=0.25;entryDx=0;entryDy=0;" edge="1" parent="1" source="_bRPd7Ua2Emygc_4kCLo-19" target="ZbxtkYr-YWAduZjAJKHO-21">
          <mxGeometry relative="1" as="geometry" />
        </mxCell>
        <mxCell id="_bRPd7Ua2Emygc_4kCLo-19" value="&lt;div&gt;Redis&lt;/div&gt;" style="strokeWidth=2;html=1;shape=mxgraph.flowchart.database;whiteSpace=wrap;fillColor=#f8cecc;strokeColor=#b85450;" parent="1" vertex="1">
          <mxGeometry x="80" y="490" width="60" height="60" as="geometry" />
        </mxCell>
        <mxCell id="_bRPd7Ua2Emygc_4kCLo-27" style="edgeStyle=orthogonalEdgeStyle;rounded=0;orthogonalLoop=1;jettySize=auto;html=1;entryX=1;entryY=0.443;entryDx=0;entryDy=0;entryPerimeter=0;" parent="1" source="_bRPd7Ua2Emygc_4kCLo-18" target="ZbxtkYr-YWAduZjAJKHO-42" edge="1">
          <mxGeometry relative="1" as="geometry" />
        </mxCell>
        <mxCell id="_bRPd7Ua2Emygc_4kCLo-28" style="edgeStyle=orthogonalEdgeStyle;rounded=0;orthogonalLoop=1;jettySize=auto;html=1;exitX=1.007;exitY=0.438;exitDx=0;exitDy=0;exitPerimeter=0;" parent="1" source="ZbxtkYr-YWAduZjAJKHO-42" edge="1">
          <mxGeometry relative="1" as="geometry">
            <mxPoint x="1000.0399999999995" y="844.0699999999999" as="sourcePoint" />
            <mxPoint x="1117.0588235294122" y="648" as="targetPoint" />
            <Array as="points">
              <mxPoint x="1117" y="911" />
            </Array>
          </mxGeometry>
        </mxCell>
        <mxCell id="_bRPd7Ua2Emygc_4kCLo-36" value="publish/consume" style="edgeLabel;html=1;align=center;verticalAlign=middle;resizable=0;points=[];" parent="_bRPd7Ua2Emygc_4kCLo-28" vertex="1" connectable="0">
          <mxGeometry x="0.2487" y="-1" relative="1" as="geometry">
            <mxPoint as="offset" />
          </mxGeometry>
        </mxCell>
        <mxCell id="_bRPd7Ua2Emygc_4kCLo-31" value="MailGun Service" style="rounded=1;whiteSpace=wrap;html=1;" parent="1" vertex="1">
          <mxGeometry x="1089.9999999999995" y="280" width="120" height="60" as="geometry" />
        </mxCell>
        <mxCell id="d06tp9DBLHwbal2BPvGb-1" style="edgeStyle=orthogonalEdgeStyle;rounded=0;orthogonalLoop=1;jettySize=auto;html=1;entryX=0.137;entryY=0.991;entryDx=0;entryDy=0;entryPerimeter=0;" parent="1" source="ZbxtkYr-YWAduZjAJKHO-60" target="ZbxtkYr-YWAduZjAJKHO-21" edge="1">
          <mxGeometry relative="1" as="geometry" />
        </mxCell>
        <mxCell id="mTYZAsVETn8fTmh112mM-4" style="edgeStyle=orthogonalEdgeStyle;rounded=0;orthogonalLoop=1;jettySize=auto;html=1;" edge="1" parent="1" source="mTYZAsVETn8fTmh112mM-1" target="mTYZAsVETn8fTmh112mM-2">
          <mxGeometry relative="1" as="geometry" />
        </mxCell>
        <mxCell id="mTYZAsVETn8fTmh112mM-1" value="Write DB" style="strokeWidth=2;html=1;shape=mxgraph.flowchart.database;whiteSpace=wrap;fillColor=#6d8764;strokeColor=#3A5431;fontColor=#ffffff;" vertex="1" parent="1">
          <mxGeometry x="430" y="270" width="60" height="60" as="geometry" />
        </mxCell>
        <mxCell id="mTYZAsVETn8fTmh112mM-3" style="edgeStyle=orthogonalEdgeStyle;rounded=0;orthogonalLoop=1;jettySize=auto;html=1;" edge="1" parent="1" source="mTYZAsVETn8fTmh112mM-2" target="mTYZAsVETn8fTmh112mM-1">
          <mxGeometry relative="1" as="geometry" />
        </mxCell>
        <mxCell id="mTYZAsVETn8fTmh112mM-2" value="Read DBs" style="strokeWidth=2;html=1;shape=mxgraph.flowchart.database;whiteSpace=wrap;fillColor=#6d8764;strokeColor=#3A5431;fontColor=#ffffff;" vertex="1" parent="1">
          <mxGeometry x="340" y="270" width="60" height="60" as="geometry" />
        </mxCell>
        <mxCell id="mTYZAsVETn8fTmh112mM-5" style="edgeStyle=orthogonalEdgeStyle;rounded=0;orthogonalLoop=1;jettySize=auto;html=1;entryX=0.75;entryY=1.033;entryDx=0;entryDy=0;entryPerimeter=0;" edge="1" parent="1" source="_bRPd7Ua2Emygc_4kCLo-8" target="mTYZAsVETn8fTmh112mM-1">
          <mxGeometry relative="1" as="geometry" />
        </mxCell>
        <mxCell id="mTYZAsVETn8fTmh112mM-6" style="edgeStyle=orthogonalEdgeStyle;rounded=0;orthogonalLoop=1;jettySize=auto;html=1;exitX=0.73;exitY=0.975;exitDx=0;exitDy=0;exitPerimeter=0;" edge="1" parent="1" source="mTYZAsVETn8fTmh112mM-1">
          <mxGeometry relative="1" as="geometry">
            <mxPoint x="475" y="398" as="targetPoint" />
          </mxGeometry>
        </mxCell>
        <mxCell id="mTYZAsVETn8fTmh112mM-8" style="edgeStyle=orthogonalEdgeStyle;rounded=0;orthogonalLoop=1;jettySize=auto;html=1;entryX=1;entryY=0.5;entryDx=0;entryDy=0;entryPerimeter=0;exitX=0;exitY=0.25;exitDx=0;exitDy=0;" edge="1" parent="1" source="ZbxtkYr-YWAduZjAJKHO-21" target="_bRPd7Ua2Emygc_4kCLo-19">
          <mxGeometry relative="1" as="geometry" />
        </mxCell>
      </root>
    </mxGraphModel>
  </diagram>
</mxfile>
